HIERARCHY
ROOT Hips
{
 OFFSET 0.000000 0.000000 0.000000
 CHANNELS 6 Xposition Yposition Zposition Yrotation Xrotation Zrotation
 JOINT Chest
 {
  OFFSET 0.000000 9.585900 0.002600
  CHANNELS 3 Yrotation Xrotation Zrotation
  JOINT Chest2
  {
   OFFSET 0.000000 9.601200 -0.005300
   CHANNELS 3 Yrotation Xrotation Zrotation
   JOINT Chest3
   {
    OFFSET 0.000000 9.561800 0.000000
    CHANNELS 3 Yrotation Xrotation Zrotation
    JOINT Chest4
    {
     OFFSET 0.000000 9.552100 0.000000
     CHANNELS 3 Yrotation Xrotation Zrotation
     JOINT Neck
     {
      OFFSET 0.000000 14.453000 0.000000
      CHANNELS 3 Yrotation Xrotation Zrotation
      JOINT Head
      {
       OFFSET 0.000000 8.936500 -0.011300
       CHANNELS 3 Yrotation Xrotation Zrotation
       End Site
       {
        OFFSET 0.000000 17.073600 -0.006000
       }
      }
     }
     JOINT RightCollar
     {
      OFFSET -2.921100 9.558500 0.000000
      CHANNELS 3 Yrotation Xrotation Zrotation
      JOINT RightShoulder
      {
       OFFSET -13.519700 0.000000 0.000000
       CHANNELS 3 Yrotation Xrotation Zrotation
       JOINT RightElbow
       {
        OFFSET 0.000000 -29.696600 0.000000
        CHANNELS 3 Yrotation Xrotation Zrotation
        JOINT RightWrist
        {
         OFFSET 0.000000 -24.004700 0.000000
         CHANNELS 3 Yrotation Xrotation Zrotation
         End Site
         {
          OFFSET 0.000000 -17.728500 0.000000
         }
        }
       }
      }
     }
     JOINT LeftCollar
     {
      OFFSET 2.921100 9.558500 0.000000
      CHANNELS 3 Yrotation Xrotation Zrotation
      JOINT LeftShoulder
      {
       OFFSET 13.519700 0.000000 0.000000
       CHANNELS 3 Yrotation Xrotation Zrotation
       JOINT LeftElbow
       {
        OFFSET 0.000000 -29.696600 0.000000
        CHANNELS 3 Yrotation Xrotation Zrotation
        JOINT LeftWrist
        {
         OFFSET 0.000000 -24.004700 0.000000
         CHANNELS 3 Yrotation Xrotation Zrotation
         End Site
         {
          OFFSET 0.000000 -17.728500 0.000000
         }
        }
       }
      }
     }
    }
   }
  }
 }
 JOINT RightHip
 {
  OFFSET -7.771700 -0.012900 -0.001300
  CHANNELS 3 Yrotation Xrotation Zrotation
  JOINT RightKnee
  {
   OFFSET 0.000000 -40.869800 0.001200
   CHANNELS 3 Yrotation Xrotation Zrotation
   JOINT RightAnkle
   {
    OFFSET 0.000000 -39.717900 0.002100
    CHANNELS 3 Yrotation Xrotation Zrotation
    JOINT RightToe
    {
     OFFSET 0.000000 -4.965400 11.033500
     CHANNELS 3 Yrotation Xrotation Zrotation
     End Site
     {
      OFFSET 0.000000 -1.423100 5.872300
     }
    }
   }
  }
 }
 JOINT LeftHip
 {
  OFFSET 7.771700 -0.012900 -0.001300
  CHANNELS 3 Yrotation Xrotation Zrotation
  JOINT LeftKnee
  {
   OFFSET 0.000000 -40.869800 0.001200
   CHANNELS 3 Yrotation Xrotation Zrotation
   JOINT LeftAnkle
   {
    OFFSET 0.000000 -39.717900 0.002100
    CHANNELS 3 Yrotation Xrotation Zrotation
    JOINT LeftToe
    {
     OFFSET 0.000000 -4.965400 11.033500
     CHANNELS 3 Yrotation Xrotation Zrotation
     End Site
     {
      OFFSET 0.000000 -1.423100 5.872300
     }
    }
   }
  }
 }
}
MOTION
Frames: 11
Frame Time: 0.008333
-138.141443 57.955075 113.060944 176.506092 -33.264048 -1.387848 2.313120 18.177278 3.219150 0.182195 2.026836 0.312144 0.345116 3.423634 0.527191 1.914836 15.824541 2.671973 -0.425815 11.362750 -2.199359 0.152376 -14.636936 -4.042059 3.301408 -1.450886 -0.924713 12.672391 -18.794913 -26.751362 139.030726 -66.557849 -102.738383 15.584334 -15.131227 -48.875947 -6.054563 -4.863416 -4.281562 -6.027726 -15.984643 -2.346775 -63.951067 -41.021378 28.860034 -12.740276 -12.521454 27.827543 8.403656 -41.527344 -6.521401 -9.744651 65.926231 -8.288588 7.346456 25.424216 4.677672 -0.487451 -16.796969 3.031682 -6.499006 -39.526681 1.775624 24.582027 64.436533 21.384242 -16.132578 6.324512 -0.758947 0.037127 -0.020916 0.007609
-138.143372 57.952661 113.066517 176.501409 -33.277113 -1.393937 2.294043 18.147745 3.217174 0.180262 2.023448 0.310042 0.355568 3.439854 0.529650 1.885062 15.774340 2.665304 -0.433770 11.348840 -2.186484 0.131937 -14.663347 -4.014271 3.328360 -1.390009 -0.951625 12.672482 -19.161177 -26.712025 138.768140 -66.806629 -102.925027 15.358927 -15.020004 -48.740993 -6.016614 -4.846003 -4.351087 -6.047524 -16.001766 -2.280263 -63.917802 -41.034237 28.794081 -12.730025 -12.491217 27.814548 8.394487 -41.519362 -6.504008 -9.747648 65.921811 -8.298391 7.344665 25.436565 4.680768 -0.483202 -16.802110 3.031216 -6.499250 -39.517538 1.769959 24.609957 64.429840 21.431422 -16.132800 6.323501 -0.773257 0.034402 -0.020546 0.010977
-138.146231 57.949656 113.073120 176.497039 -33.282090 -1.396697 2.248488 18.080705 3.195833 0.200485 2.055448 0.314244 0.345393 3.415062 0.526590 1.878226 15.765240 2.664225 -0.444528 11.342481 -2.171535 0.103653 -14.682775 -3.975631 3.360952 -1.352981 -0.990133 12.669398 -19.545306 -26.655654 138.518771 -67.101299 -103.163036 15.116879 -14.908107 -48.608453 -5.977017 -4.777067 -4.369259 -6.059429 -16.035018 -2.260914 -63.896303 -41.041533 28.759136 -12.733842 -12.517075 27.835015 8.380092 -41.517888 -6.486600 -9.776001 65.905928 -8.341546 7.368120 25.464432 4.693967 -0.482388 -16.816145 3.029194 -6.491529 -39.521932 1.751877 24.643042 64.423381 21.489381 -16.132556 6.331509 -0.782907 0.029296 -0.025497 0.006970
-138.149010 57.946974 113.079510 176.488559 -33.287595 -1.398818 2.233290 18.054342 3.187753 0.198971 2.049619 0.312970 0.335749 3.392679 0.522283 1.903870 15.808119 2.674076 -0.485021 11.289640 -2.154940 0.066376 -14.690750 -3.924814 3.372096 -1.350803 -1.002106 12.688459 -19.977079 -26.634972 138.284256 -67.448977 -103.460339 14.871880 -14.807047 -48.493206 -5.963302 -4.795713 -4.410667 -6.085001 -16.034122 -2.209198 -63.866480 -41.053528 28.720952 -12.730008 -12.506537 27.836048 8.364444 -41.513055 -6.464123 -9.845415 65.882960 -8.426169 7.412374 25.482340 4.708480 -0.487049 -16.819886 3.029746 -6.488295 -39.519446 1.747336 24.631697 64.424212 21.497681 -16.119243 6.326135 -0.795041 0.027124 -0.020802 0.006955
-138.151128 57.945209 113.084884 176.482482 -33.298883 -1.406621 2.220031 18.035276 3.182350 0.197983 2.044784 0.311676 0.334071 3.385051 0.520162 1.889675 15.785468 2.670230 -0.472561 11.324977 -2.140381 -0.009255 -14.714611 -3.849531 3.409481 -1.324570 -1.019223 12.723706 -20.413897 -26.596356 138.079569 -67.843015 -103.832518 14.632820 -14.712343 -48.421669 -5.925307 -4.794764 -4.468503 -6.111118 -16.002364 -2.142147 -63.823534 -41.055889 28.673335 -12.731250 -12.510682 27.842104 8.331369 -41.501717 -6.434896 -9.838321 65.869734 -8.435900 7.421291 25.490023 4.713410 -0.486693 -16.818873 3.025924 -6.493195 -39.511315 1.745769 24.637379 64.417675 21.534595 -16.121783 6.325505 -0.828421 0.042960 -0.020708 0.012961
-138.153160 57.944168 113.089576 176.468884 -33.312976 -1.410970 2.217136 18.020730 3.176160 0.197575 2.041288 0.310416 0.333304 3.379600 0.518132 1.881076 15.763475 2.664975 -0.466390 11.356761 -2.119149 -0.096373 -14.726531 -3.763663 3.448392 -1.320221 -1.036359 12.767439 -20.865769 -26.557530 137.928834 -68.280543 -104.299971 14.399887 -14.609528 -48.412299 -5.898356 -4.742898 -4.468342 -6.122647 -16.024086 -2.126316 -63.790024 -41.058121 28.635795 -12.725981 -12.549683 27.871295 8.321883 -41.485002 -6.413405 -9.876679 65.851064 -8.477474 7.444143 25.496357 4.718900 -0.486810 -16.814934 3.024187 -6.492101 -39.498417 1.756610 24.645389 64.416600 21.546782 -16.118989 6.324259 -0.833225 0.037357 -0.019961 0.014191
-138.149839 57.944245 113.093574 176.452246 -33.332351 -1.445369 2.233772 18.012957 3.202062 0.197856 2.038972 0.309163 0.333753 3.375935 0.516137 1.857956 15.711377 2.631813 -0.475584 11.396186 -2.059196 -0.161307 -14.713488 -3.682242 3.499614 -1.354183 -1.049768 12.807227 -21.297245 -26.483950 137.848154 -68.756208 -104.873800 14.171140 -14.496042 -48.463169 -5.869384 -4.695668 -4.464741 -6.127909 -15.990945 -2.095846 -63.789376 -41.072032 28.637289 -12.716148 -12.556661 27.876096 8.292020 -41.469529 -6.350018 -9.889479 65.835454 -8.492217 7.471728 25.497304 4.738477 -0.502732 -16.806110 3.015178 -6.514864 -39.476559 1.807108 24.644355 64.415934 21.558080 -16.126317 6.329788 -0.855975 0.057180 -0.028130 0.024153
-138.149791 57.943849 113.098327 176.432085 -33.341747 -1.458097 2.253726 18.003473 3.211395 0.196948 2.032304 0.301923 0.335285 3.373629 0.513983 1.865678 15.720350 2.641521 -0.514504 11.378156 -2.031828 -0.242736 -14.705333 -3.584170 3.512095 -1.392739 -1.061568 12.878391 -21.816725 -26.458229 137.839574 -69.252075 -105.552055 13.940939 -14.381711 -48.556119 -5.868452 -4.720065 -4.482391 -6.143040 -15.993605 -2.060641 -63.753325 -41.076414 28.593369 -12.708596 -12.546406 27.873743 8.283494 -41.457683 -6.314532 -9.901660 65.810809 -8.504180 7.468729 25.514418 4.739058 -0.497126 -16.805153 3.012801 -6.523292 -39.468533 1.836169 24.661517 64.415738 21.584792 -16.133338 6.327459 -0.873848 0.063925 -0.029161 0.028199
-138.151910 57.945042 113.100687 176.423129 -33.363669 -1.462012 2.260007 18.003966 3.197773 0.198387 2.031477 0.300488 0.337611 3.372363 0.511583 1.875133 15.710477 2.623243 -0.549308 11.382177 -1.974402 -0.335272 -14.701624 -3.471590 3.516516 -1.402256 -1.031429 12.955788 -22.383214 -26.435471 137.905046 -69.750011 -106.336450 13.703658 -14.273462 -48.666524 -5.876754 -4.727957 -4.471776 -6.114867 -16.057529 -2.036444 -63.703903 -41.053410 28.474134 -12.700726 -12.535953 27.868183 8.269948 -41.426800 -6.298612 -9.889769 65.789269 -8.494239 7.476238 25.518843 4.740257 -0.498352 -16.798943 3.011280 -6.542679 -39.450498 1.840160 24.702956 64.418188 21.624382 -16.112374 6.326886 -0.872846 0.045635 -0.034759 0.020422
-138.152856 57.946358 113.103030 176.409016 -33.383212 -1.468037 2.271900 17.997058 3.182989 0.201907 2.036120 0.304886 0.339655 3.382515 0.522450 1.884354 15.692150 2.589402 -0.588984 11.387777 -1.912730 -0.434199 -14.703663 -3.350403 3.535340 -1.458042 -1.015922 13.003203 -22.937305 -26.369533 138.049880 -70.238419 -107.236663 13.467303 -14.171114 -48.784616 -5.884845 -4.737182 -4.461756 -6.099414 -16.068654 -2.008671 -63.681724 -41.058636 28.414706 -12.693583 -12.529217 27.874025 8.265618 -41.404622 -6.279349 -9.879007 65.778872 -8.484076 7.489173 25.517888 4.740912 -0.510158 -16.793283 3.017070 -6.546368 -39.430691 1.853248 24.684872 64.421353 21.615109 -16.099991 6.327512 -0.882176 0.043897 -0.037532 0.020237
-138.152823 57.948667 113.103818 176.387394 -33.411373 -1.472097 2.293968 18.008293 3.183302 0.204812 2.030806 0.298703 0.341688 3.393284 0.532566 1.893653 15.677386 2.565893 -0.672615 11.364754 -1.844941 -0.492516 -14.684782 -3.249288 3.595994 -1.580743 -1.034825 12.992548 -23.449442 -26.242016 138.266724 -70.698269 -108.253427 13.237934 -14.084522 -48.914756 -5.890604 -4.752668 -4.462681 -6.095062 -16.077877 -1.980864 -63.630101 -41.085526 28.364548 -12.681838 -12.527814 27.872417 8.266140 -41.375430 -6.253303 -9.896542 65.766828 -8.498888 7.491974 25.526963 4.739627 -0.503576 -16.794844 3.015590 -6.545473 -39.401466 1.869354 24.672976 64.423791 21.611434 -16.093333 6.331305 -0.894783 0.047288 -0.044008 0.022160
